<?xml version="1.0" standalone="no"?><!DOCTYPE svg PUBLIC "-//W3C//DTD SVG 1.1//EN" "http://www.w3.org/Graphics/SVG/1.1/DTD/svg11.dtd"><svg t="1713528527103" class="icon" viewBox="0 0 1024 1024" version="1.1" xmlns="http://www.w3.org/2000/svg" p-id="17424" xmlns:xlink="http://www.w3.org/1999/xlink" width="200" height="200"><path d="M170.666667 128h341.333333a42.666667 42.666667 0 0 1 42.666667 42.666667v341.333333a42.666667 42.666667 0 0 1-42.666667 42.666667H170.666667a42.666667 42.666667 0 0 1-42.666667-42.666667V170.666667a42.666667 42.666667 0 0 1 42.666667-42.666667z m42.666666 85.333333v256h256V213.333333H213.333333zM682.666667 640h170.666666a42.666667 42.666667 0 0 1 42.666667 42.666667v170.666666a42.666667 42.666667 0 0 1-42.666667 42.666667h-170.666666a42.666667 42.666667 0 0 1-42.666667-42.666667v-170.666666a42.666667 42.666667 0 0 1 42.666667-42.666667z m42.666666 85.333333v85.333334h85.333334v-85.333334h-85.333334z" fill="#1296db" p-id="17425"></path><path d="M298.666667 298.666667h85.333333v85.333333H298.666667zM725.333333 469.333333h170.666667v85.333334h-213.333333a42.666667 42.666667 0 0 1-42.666667-42.666667V298.666667h85.333333v170.666666z" fill="#1296db" opacity=".8" p-id="17426"></path><path d="M896 170.666667v213.333333h-85.333333V213.333333h-170.666667V128h213.333333a42.666667 42.666667 0 0 1 42.666667 42.666667zM128 853.333333v-213.333333h85.333333v170.666667h85.333334v-128a42.666667 42.666667 0 0 1 42.666666-42.666667h170.666667a42.666667 42.666667 0 0 1 42.666667 42.666667v213.333333h-85.333334v-170.666667H384v128a42.666667 42.666667 0 0 1-42.666667 42.666667H170.666667a42.666667 42.666667 0 0 1-42.666667-42.666667z" fill="#1296db" opacity=".8" p-id="17427"></path></svg>